<svg xmlns="http://www.w3.org/2000/svg" data-name="Layer 1" viewBox="0 0 700 550"><path fill="#f9e0c0" d="M433.91354,468.86648c16.25-5.08,30.83-10.27,48.37-20.12,18.09-10.16,98.45-58.51,108.9-142.19a159.61541,159.61541,0,0,0-6.66-68.16c-3.23-9.47-9.93-28.49-26.84-47.3-20.7-23.04-44.32-31.97-58.17-37.02-29.14-10.63-53.58-10.07-65.22-9.69-12.56.41-34.73,1.33-59.93,12.34-16.44,7.18-26.66,15.37-41.72,27.61-23.86,19.41-27,27.49-68.74,67.57-11.46,11-20.88,19.67-35.26,28.21-9.97,5.92-18.03,9.23-32.9,15.27-36.55,14.85-46.95657,17.85676-58.91657,26.21676-23.26,16.27-21.75343,34.01324-22.75343,37.83324a75.12694,75.12694,0,0,0-1.77,29.97c3.05,20.07,13.86,33.19,20.57,41.13a113.09822,113.09822,0,0,0,32.9,26.44,210.24676,210.24676,0,0,0,26.96,11.89Z"/><path fill="#f9e0c0" d="M485.505,454.68127l-.49023-.87208C508.91515,440.382,587.712,390.04455,598.19249,306.07238a166.23929,166.23929,0,0,0-6.91406-70.77149c-2.97656-8.73193-9.94922-29.18017-27.84765-49.0957-21.91993-24.39111-46.94532-33.51855-60.38965-38.42187a174.1144,174.1144,0,0,0-67.74707-10.06885c-12.42481.4043-35.55078,1.15674-62.24317,12.81152l-.40039-.916c26.86817-11.73243,51.00879-12.51758,62.61035-12.89454a175.00277,175.00277,0,0,1,68.12207,10.12842c13.52637,4.93311,38.70411,14.11621,60.792,38.69336,18.03515,20.06739,25.05371,40.65088,28.05078,49.44092a167.31518,167.31518,0,0,1,6.959,71.21826C588.6466,390.63341,509.5089,441.19543,485.505,454.68127Z"/><rect width="269.428" height="16.458" x="221.371" y="386.446" fill="#c38f86" rx="8.229"/><polygon fill="#935b50" points="221.122 468.866 234.524 402.904 250.099 402.904 226.131 468.866 221.122 468.866"/><polygon fill="#935b50" points="474.695 402.904 489.147 468.866 482.024 468.866 458.59 402.904 474.695 402.904"/><path fill="#8b9d36" d="M146.19106,467.35518l-.7832-.4707c.2207-.36621,22.041-36.73047,25.4375-45.78906l.85547.32031C168.27407,430.55343,147.09048,465.85616,146.19106,467.35518Z"/><path fill="#8b9d36" d="M163.8779 402.02708a39.22478 39.22478 0 012.10917 7.0694 66.08993 66.08993 0 011.078 7.16753 64.77417 64.77417 0 01.29692 7.24176 38.69368 38.69368 0 01-.74452 7.34079 38.72912 38.72912 0 01-2.11407-7.069 64.87845 64.87845 0 01-1.07308-7.168 66.08868 66.08868 0 01-.292-7.2422A39.18945 39.18945 0 01163.8779 402.02708zM155.82464 413.03829a37.414 37.414 0 012.73688 6.66543 62.83586 62.83586 0 011.71952 6.86081 61.87359 61.87359 0 01.94914 7.00876 37.00368 37.00368 0 01-.07846 7.20605 36.96975 36.96975 0 01-2.74178-6.66449 61.87561 61.87561 0 01-1.71462-6.86181 62.93606 62.93606 0 01-.94424-7.00966A37.44758 37.44758 0 01155.82464 413.03829zM151.38741 425.85729a31.74557 31.74557 0 012.32984 6.19549 52.73742 52.73742 0 011.30358 6.34193 51.85269 51.85269 0 01.5274 6.45272A31.34443 31.34443 0 01155.04 451.448a31.34566 31.34566 0 01-2.33475-6.19481 51.76675 51.76675 0 01-1.29867-6.3426 52.73675 52.73675 0 01-.5225-6.45345A31.71454 31.71454 0 01151.38741 425.85729zM145.79952 438.65261a24.3029 24.3029 0 012.36239 5.27242 39.60281 39.60281 0 011.341 5.44874 38.86991 38.86991 0 01.56842 5.58214 24.021 24.021 0 01-.46231 5.76014 24.00253 24.00253 0 01-2.3673-5.27158 38.93691 38.93691 0 01-1.33656-5.44957 39.66925 39.66925 0 01-.56352-5.583A24.30238 24.30238 0 01145.79952 438.65261zM140.86922 446.65015a21.8801 21.8801 0 012.4939 4.62938 37.72714 37.72714 0 011.56795 4.80235 43.1093 43.1093 0 01.94691 4.92485c.10254.83591.19661 1.66713.259 2.51441a18.71227 18.71227 0 00.27552 2.5746 5.05372 5.05372 0 01-.60631-.38273l-.49219-.49319a9.10128 9.10128 0 01-.86087-1.07676 17.24662 17.24662 0 01-1.32364-2.30366 25.652 25.652 0 01-1.7369-4.85752 28.75142 28.75142 0 01-.81763-5.05781A19.04024 19.04024 0 01140.86922 446.65015zM168.66643 426.90881a31.4531 31.4531 0 015.5549-4.8169 51.47592 51.47592 0 016.13981-3.66122 50.57365 50.57365 0 016.58295-2.78654 31.09365 31.09365 0 017.17322-1.61982 31.0853 31.0853 0 01-5.55177 4.82242 50.57909 50.57909 0 01-6.14294 3.65571 51.45621 51.45621 0 01-6.58562 2.781A31.45062 31.45062 0 01168.66643 426.90881zM163.21006 437.10033a38.7469 38.7469 0 016.85134-4.4851 64.50961 64.50961 0 017.307-3.27247 63.3563 63.3563 0 017.65158-2.35481 38.305 38.305 0 018.11122-1.13066 38.31225 38.31225 0 01-6.84866 4.4909 63.36815 63.36815 0 01-7.30919 3.26668 64.49544 64.49544 0 01-7.65381 2.349A38.74619 38.74619 0 01163.21006 437.10033zM156.78716 448.42857a33.04246 33.04246 0 016.17592-4.33023 54.30053 54.30053 0 016.64715-3.12351 53.33665 53.33665 0 017.00336-2.21026 32.65994 32.65994 0 017.4786-.992 32.67105 32.67105 0 01-6.17369 4.336 53.34511 53.34511 0 01-6.64938 3.11778 54.30709 54.30709 0 01-7.00559 2.20451A33.04026 33.04026 0 01156.78716 448.42857zM151.71107 457.148a24.771 24.771 0 015.42427-3.57285 39.56079 39.56079 0 015.81125-2.33659 38.85082 38.85082 0 016.10459-1.40109 24.50751 24.50751 0 016.49512-.15309 24.506 24.506 0 01-5.42249 3.5787 38.84752 38.84752 0 01-5.81347 2.33074 39.541 39.541 0 01-6.10592 1.39513A24.7841 24.7841 0 01151.71107 457.148z"/><path fill="#8b9d36" d="M147.70406 464.97172a32.58027 32.58027 0 015.96237-4.53029 53.46986 53.46986 0 016.47685-3.34152 52.54041 52.54041 0 016.86649-2.442 32.21474 32.21474 0 017.38588-1.24183 32.20307 32.20307 0 01-5.9597 4.536 52.52154 52.52154 0 01-6.47953 3.336 53.46232 53.46232 0 01-6.86872 2.43617A32.57931 32.57931 0 01147.70406 464.97172zM170.43945 422.57039a22.93158 22.93158 0 01.17789-7.3224 34.50229 34.50229 0 011.86575-6.66142 33.93615 33.93615 0 013.14435-6.16076 22.7026 22.7026 0 014.84917-5.49349 22.68914 22.68914 0 01-.16941 7.32552 33.9671 33.9671 0 01-1.87378 6.6583 34.50683 34.50683 0 01-3.15282 6.15759A22.93562 22.93562 0 01170.43945 422.57039z"/><path fill="#50661a" d="M143.83755,467.84737l-.91211-.01562c.04-2.49414,1.123-61.31446,12.88965-79.94434l.77148.48828C144.95669,406.78975,143.84731,467.239,143.83755,467.84737Z"/><path fill="#50661a" d="M152.4204 396.28995a41.84142 41.84142 0 00.27373-8.23381 74.0243 74.0243 0 00-.88985-7.98723c-.42621-2.634-1.00622-5.24171-1.68832-7.82779-.68121-2.60313-1.54164-5.10768-2.46091-7.77541a11.40859 11.40859 0 00-.58893 2.04709 18.24372 18.24372 0 00-.32188 2.08013 35.2518 35.2518 0 00-.18546 4.12928 53.01736 53.01736 0 00.74318 8.09278 58.8166 58.8166 0 001.87243 7.87972A37.04914 37.04914 0 00152.4204 396.28995zM166.88319 359.04228a29.58372 29.58372 0 00-5.15054 6.61773 46.5087 46.5087 0 00-3.452 7.2534A45.7021 45.7021 0 00156.114 380.648a29.26521 29.26521 0 00-.45206 8.37626 29.26406 29.26406 0 005.15857-6.61472 45.66 45.66 0 003.44394-7.25647 46.50818 46.50818 0 002.15866-7.73757A29.56906 29.56906 0 00166.88319 359.04228zM176.57974 374.03325a68.1506 68.1506 0 00-6.78268 6.24971c-2.09624 2.173-4.09663 4.39465-6.05377 6.62831l-5.81481 6.67318c-.97545 1.09276-1.96115 2.16952-3.00258 3.18944a13.71052 13.71052 0 01-3.54827 2.68043 6.159 6.159 0 002.42837-.06158 11.36875 11.36875 0 002.33966-.73588 22.595 22.595 0 004.16706-2.38931 40.89812 40.89812 0 006.86426-6.35029 54.18736 54.18736 0 005.45459-7.45163A38.7819 38.7819 0 00176.57974 374.03325zM176.57974 389.02423a56.13444 56.13444 0 00-8.43176 5.18587 95.52346 95.52346 0 00-7.56509 6.1485 93.90993 93.90993 0 00-6.9093 6.877 55.503 55.503 0 00-6.03415 7.8488 55.48172 55.48172 0 008.43622-5.1813 93.8375 93.8375 0 007.56108-6.15307 95.51732 95.51732 0 006.90484-6.8816A56.12814 56.12814 0 00176.57974 389.02423zM175.59359 400.78626a55.50687 55.50687 0 00-8.5187 4.9264 94.40322 94.40322 0 00-7.67788 5.91127 92.77833 92.77833 0 00-7.04081 6.65657 54.88367 54.88367 0 00-6.19108 7.65075 54.8577 54.8577 0 008.52316-4.92167 92.71835 92.71835 0 007.67342-5.916 94.39749 94.39749 0 007.0368-6.66125A55.48054 55.48054 0 00175.59359 400.78626zM174.93645 413.35878a51.60468 51.60468 0 00-8.533 4.13948 87.39193 87.39193 0 00-7.75813 5.17734 85.93538 85.93538 0 00-7.17143 5.96293 50.99421 50.99421 0 00-6.389 7.01078 51.04169 51.04169 0 008.53653-4.13452 85.93427 85.93427 0 007.75457-5.18236 87.45092 87.45092 0 007.16742-5.9679A51.6049 51.6049 0 00174.93645 413.35878zM175.59359 422.48a57.41348 57.41348 0 00-8.928 4.53308 97.79688 97.79688 0 00-8.14465 5.56476 96.07991 96.07991 0 00-7.55217 6.34561 56.74 56.74 0 00-6.76083 7.387 56.74368 56.74368 0 008.93152-4.52812 96.07878 96.07878 0 008.14109-5.56972 97.78428 97.78428 0 007.54815-6.35051A57.41064 57.41064 0 00175.59359 422.48zM177.89446 431.026a74.84536 74.84536 0 00-9.33232 5.17941c-2.96291 1.89673-5.82952 3.90186-8.62435 5.99464-2.80286 2.08058-5.52815 4.24971-8.20529 6.49106-2.70478 2.22212-5.25976 4.53653-8.05817 6.8286a22.56414 22.56414 0 005.22544-1.52492 51.104 51.104 0 004.85229-2.336 79.6416 79.6416 0 008.91726-5.80277 91.94522 91.94522 0 008.101-6.83618A58.23716 58.23716 0 00177.89446 431.026zM180.6884 439.90074a76.97434 76.97434 0 00-10.1339 4.81579c-3.23619 1.80283-6.377 3.73857-9.44555 5.77619q-4.60351 3.05549-8.985 6.42574-2.19009 1.68987-4.33826 3.44049a38.65913 38.65913 0 01-4.40379 3.37206 8.5063 8.5063 0 002.847-.489c.9175-.27173 1.80824-.6023 2.68918-.94614 1.757-.69748 3.45465-1.49527 5.11978-2.34066a97.1604 97.1604 0 009.59891-5.66267 109.73029 109.73029 0 008.93465-6.62146A67.91279 67.91279 0 00180.6884 439.90074zM149.58767 406.73091a45.424 45.424 0 00-1.30982-8.78875 76.32549 76.32549 0 00-2.526-8.34383 75.12765 75.12765 0 00-3.44707-8.00712 44.93532 44.93532 0 00-4.67485-7.558 44.93877 44.93877 0 001.30357 8.79087 75.12806 75.12806 0 002.53225 8.34171 76.43187 76.43187 0 003.45286 8.005A45.42333 45.42333 0 00149.58767 406.73091zM147.63944 416.99326a46.41373 46.41373 0 00-2.52244-8.62441 78.16145 78.16145 0 00-3.66819-8.02056 76.86111 76.86111 0 00-4.53576-7.56358 45.92018 45.92018 0 00-5.69265-6.954A45.92112 45.92112 0 00133.737 394.458a76.95181 76.95181 0 003.674 8.01765 78.25562 78.25562 0 004.54111 7.56069A46.47405 46.47405 0 00147.63944 416.99326zM146.16512 426.91734a50.84022 50.84022 0 00-3.69227-8.65829 86.153 86.153 0 00-4.76535-7.93306 84.64289 84.64289 0 00-5.57808-7.38409 50.272 50.272 0 00-6.66142-6.65195 50.26773 50.26773 0 003.68737 8.66181 84.54329 84.54329 0 004.7707 7.92955 86.06283 86.06283 0 005.583 7.38069A50.84416 50.84416 0 00146.16512 426.91734zM145.0849 437.86625a65.5573 65.5573 0 00-5.28607-9.29269q-2.94708-4.39815-6.28915-8.47284-3.33094-4.08383-7.04795-7.85236a64.54109 64.54109 0 00-8.06039-7.02476 64.53539 64.53539 0 005.28116 9.29659q2.94708 4.39789 6.29362 8.46893 3.339 4.0779 7.05285 7.84847A65.479 65.479 0 00145.0849 437.86625zM144.208 449.21979a66.20645 66.20645 0 00-6.25974-8.73492q-3.4065-4.08927-7.17277-7.81564-3.75557-3.73676-7.8629-7.11994a65.20525 65.20525 0 00-8.7844-6.19186 65.208 65.208 0 006.25528 8.73927q3.4065 4.08885 7.17678 7.81129 3.76293 3.73 7.86736 7.11554A66.18077 66.18077 0 00144.208 449.21979zM143.67433 456.49973a57.69871 57.69871 0 00-6.80095-7.38431 98.3038 98.3038 0 00-7.582-6.351 96.56184 96.56184 0 00-8.17318-5.56905 57.03694 57.03694 0 00-8.96229-4.52589 57.0522 57.0522 0 006.79739 7.38921 96.63985 96.63985 0 007.5856 6.34611 98.375 98.375 0 008.1772 5.5641A57.7111 57.7111 0 00143.67433 456.49973zM143.38188 462.58058a61.07837 61.07837 0 00-7.94538-6.60625q-4.16751-2.96264-8.58869-5.48178-4.41426-2.53155-9.07552-4.63088a60.3637 60.3637 0 00-9.72508-3.49578 60.37026 60.37026 0 007.9427 6.61154q4.16751 2.9623 8.59136 5.47644 4.419 2.52344 9.07865 4.62558A61.08853 61.08853 0 00143.38188 462.58058zM143.6088 466.52484a65.965 65.965 0 00-9.29576-5.35427c-3.18938-1.53975-6.44118-2.91164-9.746-4.13976q-4.95661-1.84384-10.08664-3.22059a65.0028 65.0028 0 00-10.54182-1.99437 65.00462 65.00462 0 009.29352 5.36007q4.78475 2.30911 9.74827 4.134c3.30663 1.22333 6.66677 2.303 10.08887 3.2148A65.9542 65.9542 0 00143.6088 466.52484z"/><path fill="#5e7c24" d="M142.01138,466.21065c-.89942-1.499-22.083-36.80078-25.50977-45.93945l.85547-.32031c3.39648,9.05957,25.2168,45.42285,25.4375,45.78906Z"/><path fill="#5e7c24" d="M124.27846 401.02708a39.224 39.224 0 00-2.10917 7.0694 66.09 66.09 0 00-1.078 7.16753 64.77417 64.77417 0 00-.29691 7.24176 38.69448 38.69448 0 00.74451 7.34079 38.72833 38.72833 0 002.11407-7.069 64.88085 64.88085 0 001.07309-7.168 66.08868 66.08868 0 00.292-7.2422A39.18945 39.18945 0 00124.27846 401.02708zM132.33172 412.03829a37.414 37.414 0 00-2.73688 6.66543 62.83356 62.83356 0 00-1.71952 6.86081 61.87587 61.87587 0 00-.94915 7.00876 37.00448 37.00448 0 00.07847 7.20605 36.96975 36.96975 0 002.74178-6.66449A61.87561 61.87561 0 00131.461 426.253a62.93841 62.93841 0 00.94424-7.00966A37.44919 37.44919 0 00132.33172 412.03829zM136.769 424.85729a31.74561 31.74561 0 00-2.32985 6.19549 52.73738 52.73738 0 00-1.30357 6.34193 51.85078 51.85078 0 00-.5274 6.45272 31.34443 31.34443 0 00.50823 6.60056 31.34628 31.34628 0 002.33475-6.19481 51.76675 51.76675 0 001.29867-6.3426 52.73873 52.73873 0 00.5225-6.45345A31.71454 31.71454 0 00136.769 424.85729zM142.35684 437.65261a24.30343 24.30343 0 00-2.3624 5.27242 39.6057 39.6057 0 00-1.341 5.44874 38.8699 38.8699 0 00-.56841 5.58214 24.02047 24.02047 0 00.46231 5.76014 24.00248 24.00248 0 002.36729-5.27158 38.93555 38.93555 0 001.33657-5.44957 39.66924 39.66924 0 00.56351-5.583A24.30289 24.30289 0 00142.35684 437.65261zM147.28714 445.65015a21.88015 21.88015 0 00-2.49391 4.62938 37.72708 37.72708 0 00-1.56794 4.80235 43.1115 43.1115 0 00-.94692 4.92485c-.10254.83591-.1966 1.66713-.259 2.51441a18.71223 18.71223 0 01-.27551 2.5746 5.05372 5.05372 0 00.60631-.38273l.49218-.49319a9.10138 9.10138 0 00.86088-1.07676 17.24654 17.24654 0 001.32363-2.30366 25.65273 25.65273 0 001.73691-4.85752 28.75328 28.75328 0 00.81763-5.05781A19.04062 19.04062 0 00147.28714 445.65015zM119.48992 425.90881a31.453 31.453 0 00-5.55489-4.8169 51.47592 51.47592 0 00-6.13981-3.66122 50.57378 50.57378 0 00-6.583-2.78654 31.09368 31.09368 0 00-7.17321-1.61982 31.08461 31.08461 0 005.55177 4.82242 50.579 50.579 0 006.14293 3.65571 51.45635 51.45635 0 006.58563 2.781A31.45066 31.45066 0 00119.48992 425.90881zM124.94629 436.10033a38.74647 38.74647 0 00-6.85133-4.4851 64.50975 64.50975 0 00-7.307-3.27247 63.35575 63.35575 0 00-7.65158-2.35481 38.30479 38.30479 0 00-8.11121-1.13066 38.31189 38.31189 0 006.84866 4.4909 63.36739 63.36739 0 007.30919 3.26668 64.49487 64.49487 0 007.65381 2.349A38.74619 38.74619 0 00124.94629 436.10033zM131.3692 447.42857a33.04246 33.04246 0 00-6.17592-4.33023 54.3 54.3 0 00-6.64716-3.12351 53.3357 53.3357 0 00-7.00336-2.21026 32.65994 32.65994 0 00-7.4786-.992 32.67137 32.67137 0 006.17369 4.336 53.34578 53.34578 0 006.64938 3.11778 54.30758 54.30758 0 007.00559 2.20451A33.04035 33.04035 0 00131.3692 447.42857zM136.44529 456.148a24.771 24.771 0 00-5.42428-3.57285 39.56023 39.56023 0 00-5.81124-2.33659 38.85108 38.85108 0 00-6.10459-1.40109 24.50757 24.50757 0 00-6.49513-.15309 24.50648 24.50648 0 005.42249 3.5787 38.84838 38.84838 0 005.81347 2.33074 39.54135 39.54135 0 006.10593 1.39513A24.7841 24.7841 0 00136.44529 456.148z"/><path fill="#5e7c24" d="M140.4523 463.97172a32.58061 32.58061 0 00-5.96237-4.53029 53.47133 53.47133 0 00-6.47685-3.34152 52.54054 52.54054 0 00-6.8665-2.442 32.21465 32.21465 0 00-7.38587-1.24183 32.20241 32.20241 0 005.9597 4.536 52.5207 52.5207 0 006.47952 3.336 53.46246 53.46246 0 006.86873 2.43617A32.57931 32.57931 0 00140.4523 463.97172zM117.7169 421.57039a22.9313 22.9313 0 00-.17788-7.3224 34.503 34.503 0 00-1.86575-6.66142 33.9362 33.9362 0 00-3.14436-6.16076 22.70255 22.70255 0 00-4.84916-5.49349 22.68886 22.68886 0 00.16941 7.32552 33.96708 33.96708 0 001.87377 6.6583 34.50754 34.50754 0 003.15283 6.15759A22.93557 22.93557 0 00117.7169 421.57039z"/><path fill="#edebeb" d="M258.36181,316.05056v-6.89947l5.51958,4.82963s9.65926-4.13968,15.17884.23l7.35944-5.05961-1.60988,8.27937a109.50375,109.50375,0,0,1,1.60988,13.569s36.22223,23.027,34.15239,54.99455c0,0,.04849,4.35586-3.946,11.76486a47.39235,47.39235,0,0,1-7.97071,10.64125,45.57337,45.57337,0,0,0-9.81666,14.8223s-5.49925,2.1386-2.30525-7.40322a30.65448,30.65448,0,0,1,7.57823-11.98268c3.73946-3.70577,9.12967-9.99436,11.28576-17.18131H267.56111s1.00617-4.3482,3.337-5.06476c0,0-9.31655-19.31338-11.15641-27.13278s0-22.07831,0-22.07831S255.832,323.41,258.36181,316.05056Z"/><path fill="#070707" d="M275.57551 319.56909a5.09351 5.09351 0 01.97912-.80444 5.35833 5.35833 0 011.07233-.537 3.43583 3.43583 0 012.23975-.07727 2.94818 2.94818 0 00-1.742.89612 4.17611 4.17611 0 00-.56592.74658 3.2864 3.2864 0 00-.358.79175 1.00922 1.00922 0 11-1.72632-.90735zM264.68018 320.58484a3.28406 3.28406 0 00-.35809-.79175 4.1753 4.1753 0 00-.56586-.74658 2.94833 2.94833 0 00-1.742-.89612 3.43581 3.43581 0 012.23974.07727 5.36151 5.36151 0 011.07233.537 5.09147 5.09147 0 01.97907.80444l.098.10535a1.00925 1.00925 0 11-1.47785 1.37488A1.02071 1.02071 0 01264.68018 320.58484z"/><path fill="#e2b5b5" d="M272.52766,324.30819a1.44836,1.44836,0,0,1-2.89671,0C269.631,323.50828,272.52766,323.50828,272.52766,324.30819Z"/><polygon fill="#ccc4c4" points="294.929 319.106 278.28 325.187 278.067 324.257 295.619 322.49 278.188 325.208 277.975 324.278 294.929 319.106"/><path fill="#ccc4c4" d="M295.619,325.75659a71.2087,71.2087,0,0,1-8.77374-.03406,70.38008,70.38008,0,0,1-8.71783-.99011,70.35677,70.35677,0,0,1,8.7738.03406A71.18893,71.18893,0,0,1,295.619,325.75659Z"/><polygon fill="#ccc4c4" points="246.237 319.106 263.19 324.278 262.977 325.208 245.547 322.49 263.099 324.257 262.886 325.187 246.237 319.106"/><path fill="#ccc4c4" d="M245.54658,325.75659a71.18915,71.18915,0,0,1,8.71777-.99011,70.35586,70.35586,0,0,1,8.77374-.03406,70.3776,70.3776,0,0,1-8.71777.99011A71.2087,71.2087,0,0,1,245.54658,325.75659Z"/><circle cx="272.003" cy="339.74" r="3.094" fill="#eadd65"/><path fill="#ccc4c4" d="M270.55091 354.11267l1.06793 7.14661 1.15686 7.11511c.41242 2.36438.8653 4.71887 1.40827 7.04736l.42706 1.74012.49988 1.71459c.16589.57166.38806 1.11841.57959 1.6814.20605.55481.49145 1.06445.73382 1.60352l.12568.27954-.24347.11828a8.18883 8.18883 0 00-2.28412 1.56372 2.81943 2.81943 0 00-.72541 1.15784 2.11966 2.11966 0 00.07117 1.37439 2.1115 2.1115 0 01-.24725-1.41736 3.06419 3.06419 0 01.65582-1.32666 7.33773 7.33773 0 012.28748-1.85632l-.11774.39758a25.23528 25.23528 0 01-2.6424-6.81189q-.88951-3.52789-1.4439-7.11413-.561-3.581-.88343-7.18872C270.74842 358.93567 270.59534 356.52612 270.55091 354.11267zM306.42817 356.92993a18.35814 18.35814 0 00-5.67011-3.65893 10.78239 10.78239 0 00-6.52179-.62842 11.86738 11.86738 0 00-5.59063 3.36694 15.86255 15.86255 0 00-3.63343 5.49207 11.76317 11.76317 0 00-.35315 6.46618 18.41712 18.41712 0 002.64185 6.07959 40.63322 40.63322 0 009.26611 9.75733l.86713.66308-1.06134-.212a12.38877 12.38877 0 00-4.2771-.19812 4.147 4.147 0 00-1.96655.77478 2.84039 2.84039 0 00-1.04553 1.82275 2.90365 2.90365 0 01.94519-1.94409 4.358 4.358 0 012.01452-.92517 12.24351 12.24351 0 014.43146-.02088l-.19421.45093a38.01043 38.01043 0 01-9.69843-9.70141 19.29913 19.29913 0 01-2.83374-6.34656 12.09482 12.09482 0 01.40912-6.97656 16.711 16.711 0 013.89813-5.7721 12.00308 12.00308 0 016.03882-3.42261 11.00458 11.00458 0 016.82281.89893A17.476 17.476 0 01306.42817 356.92993z"/><path fill="#e2b5b5" d="M259.74171,332.37927a21.36,21.36,0,0,0,3.16888,1.72254c.54053.25561,1.10236.46447,1.65143.69409.56927.18017,1.12872.38525,1.7008.54407a20.33351,20.33351,0,0,0,7.01368.77,11.07963,11.07963,0,0,0,1.75549-.18726,10.59647,10.59647,0,0,0,1.73566-.33276l1.71667-.45008,1.65979-.64233.83563-.31751c.26892-.127.52814-.27514.79328-.41186l1.58844-.83667c1.04669-.58533,2.00989-1.30982,3.05823-1.93213-.911.79065-1.82856,1.59863-2.80555,2.32812l-1.5534.97315c-.26117.15955-.51691.33069-.78369.48108l-.83387.38952c-.55664.25977-1.11395.52491-1.68255.76148l-1.77228.53735a10.30761,10.30761,0,0,1-1.81335.37793,11.6722,11.6722,0,0,1-1.842.218,18.07488,18.07488,0,0,1-7.29194-1.02661A18.48361,18.48361,0,0,1,259.74171,332.37927Z"/><rect width="186.337" height="141.417" x="151.425" y="112.162" fill="#e5e1e5" rx="8.473" transform="rotate(.07 244.59 182.865)"/><polygon fill="#8d9ac9" points="337.827 129.852 151.491 129.626 151.491 128.855 337.827 129.082 337.827 129.852"/><path fill="#ffba55" d="M162.03683,124.95557c4.46053,0,4.46792-6.9322,0-6.9322-4.46054,0-4.46793,6.9322,0,6.9322Z"/><path fill="#f73c4f" d="M173.59048,124.96959c4.46054,0,4.46793-6.9322,0-6.9322-4.46054,0-4.46793,6.9322,0,6.9322Z"/><path fill="#4f66d0" d="M184.37389,124.98267c4.46054,0,4.46793-6.9322,0-6.9322-4.46054,0-4.46793,6.9322,0,6.9322Z"/><polygon fill="#8d9ac9" points="280.365 197.175 208.825 197.088 208.825 196.317 280.365 196.404 280.365 197.175"/><rect width="133.817" height="12.927" x="177.686" y="172.506" fill="#f7f7f9"/><path fill="#4f66d0" d="M206.66254,165.223c5.85773,0,5.86743-9.1036,0-9.1036-5.85774,0-5.86744,9.1036,0,9.1036Z"/><path fill="#f73c4f" d="M221.8352,165.223c5.85774,0,5.86744-9.1036,0-9.1036-5.85773,0-5.86743,9.1036,0,9.1036Z"/><path fill="#ffba55" d="M237.00787,165.223c5.85774,0,5.86744-9.1036,0-9.1036-5.85773,0-5.86743,9.1036,0,9.1036Z"/><path fill="#4f66d0" d="M252.18054,165.223c5.85774,0,5.86744-9.1036,0-9.1036-5.85773,0-5.86743,9.1036,0,9.1036Z"/><path fill="#8b9d36" d="M267.35321,165.223c5.85774,0,5.86744-9.1036,0-9.1036-5.85773,0-5.86743,9.1036,0,9.1036Z"/><path fill="#f73c4f" d="M282.52588,165.223c5.85773,0,5.86744-9.1036,0-9.1036-5.85773,0-5.86743,9.1036,0,9.1036Z"/><path fill="#4f66d0" d="M306.32118,179.49451a1.57218,1.57218,0,0,0,1.57246-1.57246v-2.61981a1.571,1.571,0,1,0-3.14207,0v2.61981a1.56975,1.56975,0,0,0,1.56961,1.57246Zm0,0"/><path fill="#f73c4f" d="M308.941,177.39514v.40908a2.70027,2.70027,0,0,1-2.35687,2.72472,2.62341,2.62341,0,0,1-2.88275-2.60689v-.52691a.52044.52044,0,0,0-.52045-.52044h-.00647a.52044.52044,0,0,0-.52044.52044v.52691a3.67049,3.67049,0,0,0,3.14207,3.62528v1.6115h-1.04736a.52511.52511,0,0,0,0,1.05021h3.14207a.52511.52511,0,0,0,0-1.05021h-1.04736v-1.6115a3.66841,3.66841,0,0,0,3.14207-3.62528v-.52691a.52044.52044,0,0,0-.52044-.52044h-.00362A.52044.52044,0,0,0,308.941,177.39514Zm0-.52044"/><path d="M192.62727 175.543v2.53857h2.93457V175.543h.792v6.06787h-.792v-2.84473h-2.93457v2.84473h-.78321V175.543zM201.62824 179.396a2.12959 2.12959 0 01-2.16992 2.314 2.07159 2.07159 0 01-2.08887-2.2417 2.12836 2.12836 0 012.16114-2.314A2.06385 2.06385 0 01201.62824 179.396zm-3.457.04541c0 .9541.54883 1.67431 1.32324 1.67431.75586 0 1.32325-.71142 1.32325-1.69238 0-.73828-.36915-1.6748-1.30567-1.6748C198.57648 177.74854 198.17121 178.61279 198.17121 179.44141zM202.87922 177.25342l.57617 2.21484c.126.48633.24316.936.32422 1.38623h.02637c.09961-.44092.24316-.90918.38769-1.37744l.71094-2.22363h.666l.6748 2.17871c.16211.52246.28809.98144.3877 1.42236h.02734a12.82534 12.82534 0 01.333-1.41308l.62109-2.188h.7832l-1.40429 4.35742h-.72071l-.666-2.07959a14.56508 14.56508 0 01-.3877-1.43164h-.01758A12.87035 12.87035 0 01204.805 179.54l-.70215 2.0708h-.71972l-1.31446-4.35742zM212.05012 176.002v1.25147h1.13476v.60351h-1.13476v2.34961c0 .54.15332.84619.59472.84619a1.74874 1.74874 0 00.459-.05419l.03613.59423a1.94283 1.94283 0 01-.70215.10791 1.09661 1.09661 0 01-.85547-.333 1.61116 1.61116 0 01-.30664-1.13428v-2.37647h-.6748v-.60351h.6748v-1.04395zM217.9632 179.396a2.12959 2.12959 0 01-2.16992 2.314 2.07159 2.07159 0 01-2.08887-2.2417 2.12785 2.12785 0 012.16114-2.314A2.06385 2.06385 0 01217.9632 179.396zm-3.457.04541c0 .9541.54883 1.67431 1.32324 1.67431.75586 0 1.32325-.71142 1.32325-1.69238 0-.73828-.36914-1.6748-1.30567-1.6748C214.91145 177.74854 214.50617 178.61279 214.50617 179.44141z"/><rect width="1.139" height="10.479" x="221.051" y="173.73"/><path fill="#e5e1e5" d="M181.45861,180.11132c2.41863,2.19587,5.83527-1.55933,3.41263-3.75884-2.41863-2.19587-5.83527,1.55933-3.41263,3.75884Z"/><path fill="#e5e1e5" d="M187.59309,182.6748a.42223.42223,0,0,1-.28418-.10937l-2.61231-2.37158a.42312.42312,0,0,1,.56836-.627l2.61231,2.37159a.42287.42287,0,0,1-.28418.73632Z"/><path fill="#f9977a" d="M369.47254,233.62012,353.92,210.68l2.04546-4.07a7.07372,7.07372,0,0,0-.23-3.06128l-2.24194-7.41309s-1.99158-3.01086-8.184-2.13147c0,0-1.28717,2.541,5.20233,4.84473l-1.60053,2.34839-5.50555-4.15516-3.87683-2.25317s-2.66846-6.432-3.55457-6.9873c0,0-6.06079-3.26917,1.28791,8.91638l-.04328,5.31921a6.80357,6.80357,0,0,0,3.19055,5.82031l5.14162,5.10246,17.86058,44.71407c1.901,3.94971,4.06757,7.61548,8.45093,7.61548Z"/><path fill="#1b2e35" d="M345.86539,209.0477l.39276-.11408a1.25828,1.25828,0,0,0,.76986-1.7802L335.15755,183.887a1.25828,1.25828,0,0,0-1.71784-.5358h0a1.25829,1.25829,0,0,0-.53253,1.66215l11.47771,23.38046A1.25828,1.25828,0,0,0,345.86539,209.0477Z"/><path fill="#f9977a" d="M338.54383,206.1245l5.50174,2.2565a1.09127,1.09127,0,0,0,1.33881-.43018h0a1.09127,1.09127,0,0,0-.41259-1.54311l-6.37105-3.3858,4.84454,1.5179a1.38829,1.38829,0,0,0,1.74587-.92934h0a1.3883,1.3883,0,0,0-.92906-1.72434l-4.90239-1.482,4.47912.06883a1.18854,1.18854,0,0,0,1.2043-1.11149h0a1.18854,1.18854,0,0,0-.94714-1.24117l-6.83371-1.40222"/><path fill="#dd765e" d="M345.76575,207.184a1.33677,1.33677,0,0,0-.68194-.99683l-.90094-.49951-1.80188-.99914-.47156-.25562.06091.01953.86756.27747.43371.13867a1.86434,1.86434,0,0,0,.54627.10156,1.74883,1.74883,0,0,0,.94183-3.25293,4.51146,4.51146,0,0,0-.93823-.33484l-.87335-.2583-1.29834-.38415c.48224.00061.96441.00842,1.44677.00513.33112-.00989.58063.01879.97876-.02271a1.44658,1.44658,0,0,0,.94135-.587,1.42843,1.42843,0,0,0-.33331-1.98584,1.4043,1.4043,0,0,0-.50074-.22155l-.46612-.08911-.92029-.16858-1.84363-.32227-3.6903-.62976,3.64013.87427,1.82154.42981.91235.20752a1.89681,1.89681,0,0,1,.7923.26941.96.96,0,0,1,.18536,1.34021.92914.92914,0,0,1-.61829.35559c-.22247.01843-.59863-.01282-.89038-.01673q-1.87-.06995-3.74048-.10168a.331.331,0,0,0-.31951.2334.32764.32764,0,0,0,.21966.408l3.481,1.07482.8703.26868a4.26634,4.26634,0,0,1,.77307.27356,1.02627,1.02627,0,0,1,.44769,1.16358,1.03761,1.03761,0,0,1-1.001.73522,1.10767,1.10767,0,0,1-.34577-.063l-.43536-.13355-.87073-.26721-3.48285-1.06873a.34094.34094,0,0,0-.40082.16443.33582.33582,0,0,0,.14264.453l3.65406,1.90368,1.83636.93433.91815.46716a.85819.85819,0,0,1,.46082.62537.88447.88447,0,0,1-1.00916,1.00659c-.578-.17566-1.26788-.4657-1.8963-.693l-3.86322-1.43836,3.76068,1.68848c.64935.272,1.207.57409,1.9317.82141A1.30793,1.30793,0,0,0,345.76575,207.184Z"/><path fill="#f9977a" d="M429.93808,408.44085l17.80751,8.41326s-2.61895,11.05516-16.37953,9.85514l-9.81724-6.04882Z"/><path fill="#376f92" d="M438.29958,412.42726s14.02691-.61517,16.37186,7.1237a2.70322,2.70322,0,0,1-.42632,2.38333l-25.86457,34.97979a1.41826,1.41826,0,0,1-2.10384.192c-1.672-1.53158,4.78835-17.96311,3.73765-31.22968C430.01436,425.8764,440.465,419.0827,438.29958,412.42726Z"/><path fill="#f9977a" d="M377.59922,441.28043l3.71749,19.34091s-10.47025,4.41013-17.6225-7.40676l-.91069-11.49509Z"/><path fill="#376f92" d="M379.31573,450.38317s8.7748,10.96063,3.91126,17.42087a2.70324,2.70324,0,0,1-2.17562,1.0624l-43.50295-.23617a1.41825,1.41825,0,0,1-1.3966-1.58508c.24967-2.25365,17.19921-6.90041,27.289-15.57809C363.4408,451.4671,375.22086,456.05908,379.31573,450.38317Z"/><path fill="#f9977a" d="M385.63813,150.46873a19.433,19.433,0,0,0-9.07693.778c-1.36921.48548-6.377,2.261-8.81786,7.00229-.92705,1.80064-1.13652,3.96676-1.556,8.299-.262,2.706-1.30415,4.64405-1.30256,7.94445a27.88252,27.88252,0,0,0,1.30256,7.87553c1.21359,3.98977.43214,6.25649,1.03734,7.00228,2.439,3.00572,9.84343.64738,9.95463,4.56955.06867,2.42184-4.01883,12.877-3.93538,15.71419.19445,6.61138,11.23522-.30765,17.84047-10.16932.29977-.44757,4.81521-3.09083,4.34271-7.37424-.25247-2.28827-2.19523-13.02531-2.00871-14.41065.67458-5.00716,3.19774-5.6178,5.18693-11.67047a9.41473,9.41473,0,0,0-1.556-9.077A19.23082,19.23082,0,0,0,385.63813,150.46873Z"/><ellipse cx="367.229" cy="170.795" fill="#0a0709" rx="1.017" ry="1.264"/><ellipse cx="376.396" cy="170.795" fill="#0a0709" rx="1.017" ry="1.264"/><path fill="#1e1d22" d="M372.06379 168.53159a.63782.63782 0 01-.3486-.104 5.43133 5.43133 0 00-6.13725-.02447.64166.64166 0 01-.77162-1.02542 6.81151 6.81151 0 017.60812-.0265.64207.64207 0 01-.35065 1.18035zM381.56476 168.53159a.63782.63782 0 01-.3486-.104 5.48587 5.48587 0 00-6.13725-.02651.64115.64115 0 01-.77264-1.02338 6.81342 6.81342 0 017.60914-.0265.64207.64207 0 01-.35065 1.18035z"/><path fill="#dd765e" d="M372.9376 168.79247a4.793 4.793 0 01-.117 3.25536 10.45741 10.45741 0 01-1.55317 2.90241l-.5308.6042a.66274.66274 0 00-.2133.46754 1.6501 1.6501 0 00.58993 1.10761 4.07958 4.07958 0 002.86018.77276 3.57467 3.57467 0 01-3.261-.28381 2.19313 2.19313 0 01-.95637-1.58828 1.425 1.425 0 01.37052-.98038l.51246-.61012a14.82027 14.82027 0 001.60515-2.64587A6.14076 6.14076 0 00372.9376 168.79247zM389.59666 169.22026a1.80362 1.80362 0 011.2038.06129 2.95393 2.95393 0 011.01752.65892 3.45507 3.45507 0 01.6832.9728 2.97505 2.97505 0 01.28311 1.14583 9.41784 9.41784 0 01-.80857-.79442c-.25584-.2512-.47449-.51947-.72625-.74754a9.3604 9.3604 0 00-.75123-.68312A6.20142 6.20142 0 00389.59666 169.22026z"/><path fill="#dd765e" d="M390.42281,174.49251a3.0569,3.0569,0,0,1-.58458-2.44806,3.30026,3.30026,0,0,1,.45283-1.21463,2.69793,2.69793,0,0,1,.89954-.91107,20.43916,20.43916,0,0,0-.55323,2.25674A19.653,19.653,0,0,0,390.42281,174.49251Z"/><path fill="#1e1d22" d="M387.39364,176.33249a9.90212,9.90212,0,0,1,.66165-4.21032c.72555-1.84993,1.61573-4.37053,3.42523-4.53831,1.33327-.12362,1.8689-.47562,2.349.81114.79332,2.12871-.585,4.477-1.5446,6.1126-1.37394,2.34035-2.54056,2.85129-2.56178,4.4705-.01633,1.23521,3.51,3.74195,4.17831,3.25955,1.36244-.98336.61649-3.93034,4.33393-10.94361,2.3477-4.42858,3.42713-5.25935,3.699-8.02393.09645-.9816.49582-5.04545-1.95-7.409-1.13449-1.09629-1.77961-.76229-6.71248-2.85115a40.68458,40.68458,0,0,1-4.01146-1.84931c-3.92923-2.14635-3.84178-3.25038-6.141-3.904-2.0771-.59035-2.20022.29648-6.16643.06162-3.824-.22632-4.16313-1.07769-5.93089-.57355-3.06925.87516-4.54335,4.15333-4.93919,5.03417a10.56327,10.56327,0,0,0-1.18431,4.93661,9.52949,9.52949,0,0,0,1.865,4.80421c.49855.50786,2.52039-2.41954,3.62214-3.52083,1.08032-1.079,2.30755-.63716,3.97987-.53318,1.63056.10139,1.54137,1.11693,3.95316,2.00855.85931.31763,4.30276-1.225,5.41417.68072,1.1842,2.03051,2.105,2.27653,1.549,4.16593-.34739,1.1804-.13242,2.63062.29747,5.53122.3083,2.08159-1.37589,9.35235-1.37589,9.35235C383.58009,180.479,387.58526,179.53368,387.39364,176.33249Z"/><path fill="#376f92" d="M364.47248,293.49172l-8.167,75.83643,1.89625,76.60826a2,2,0,0,0,1.99939,1.95051H377.837a2,2,0,0,0,1.98927-1.79312l4.86928-46.82,35.141,25.52343a2,2,0,0,0,2.91181-.62593l8.98613-15.72572a2,2,0,0,0-.39189-2.47284l-36.92439-33.53337,8.167-42.39062,7.503-14.25579a31.26423,31.26423,0,0,0,3.51558-16.82894l-.9071-12.47261Z"/><path fill="#10394f" d="M367.58368 298.93639l-.60139 13.80844-.67249 13.80487-1.349 27.60936-.75021 13.8008-.37587 6.90033a16.53337 16.53337 0 00.81621 6.74973 16.32423 16.32423 0 003.5319 5.81388c1.53559 1.71244 3.13692 3.36652 4.82489 4.92772a40.62774 40.62774 0 005.36819 4.31677 14.90529 14.90529 0 006.31971 2.60548 14.96038 14.96038 0 01-6.38061-2.51132 40.77308 40.77308 0 01-5.45891-4.24581c-1.70759-1.553-3.32014-3.20674-4.87076-4.91446a16.61691 16.61691 0 01-3.62237-5.89186 16.87076 16.87076 0 01-.87125-6.86784l.33713-6.90237.6753-13.80462 1.5022-27.60146.75327-13.80067zM387.80675 373.21719a10.683 10.683 0 001.72263.4843 6.23192 6.23192 0 001.73334.10818 4.3694 4.3694 0 001.663-.41321 6.682 6.682 0 001.49252-.95713 4.06215 4.06215 0 01-1.3302 1.27019 4.17051 4.17051 0 01-1.79169.55667A5.36572 5.36572 0 01387.80675 373.21719z"/><path fill="#f73c4f" d="M375.34419,201.19095s-6.91669,20.56776,19.942-10.127l11.86568,9.68354a14.36825,14.36825,0,0,1,4.8547,7.967l8.85708,40.24763H410.07157l2.62511,37.52931-50.60624,7.38919S362.07281,242.31763,375.34419,201.19095Z"/><path fill="#b02336" d="M368.65319,283.08857c.9133-.53386,1.84393-1.01867,2.7608-1.52692l2.69148-1.615a45.439,45.439,0,0,0,5.00786-3.71945,27.9845,27.9845,0,0,0,4.26529-4.50471,19.15709,19.15709,0,0,0,1.63931-2.64,11.83587,11.83587,0,0,0,1.136-2.91139,13.41692,13.41692,0,0,1-2.26311,5.90625,22.60739,22.60739,0,0,1-4.24695,4.76157A32.15941,32.15941,0,0,1,374.424,280.479l-2.83062,1.43442C370.60975,282.30587,369.64039,282.72162,368.65319,283.08857Z"/><path fill="#f9977a" d="M397.28724,249.62629l3.45055,19.16989-13.27168,31.50139-5.90573,5.542a29.56175,29.56175,0,0,0,7.19939,15.01455s3.95693-7.28523,3.66537-14.86877l24.04742-27.7112a17.90676,17.90676,0,0,0,4.15118-14.60253l-2.38516-14.70953S404.33748,243.87347,397.28724,249.62629Z"/><path fill="#f73c4f" d="M398.98778,198.50172s-14.41328,2.04175-10.99846,22.16758,5.23755,29.16786,5.23755,29.16786l27.63681-.875"/><path fill="#b02336" d="M398.9878,198.50174a13.64639,13.64639,0,0,0-6.244,3.25618,14.35688,14.35688,0,0,0-3.82266,5.84656,19.474,19.474,0,0,0-.87431,3.41232c-.09123.5805-.10652,1.1738-.16385,1.75933a11.6562,11.6562,0,0,0-.07569,1.76416,42.9439,42.9439,0,0,0,.71021,7.05139l2.57579,14.07881,2.48074,14.09658-.35829-.28388c4.60625-.14582,9.2148-.20953,13.82233-.31725,4.60727-.1085,9.21709-.13315,13.82564-.2038-4.60371.221-9.20614.488-13.81086.67121-4.605.18392-9.20843.41193-13.81468.55775l-.30452.00962-.054-.29368-2.58037-14.08875-2.48533-14.10646a38.91029,38.91029,0,0,1-.63223-7.18014,12.11616,12.11616,0,0,1,.11518-1.80519c.0711-.59967.10041-1.20444.20641-1.79844a19.98351,19.98351,0,0,1,.97166-3.48992A13.94728,13.94728,0,0,1,398.9878,198.50174Z"/><path fill="#10394f" d="M380.38594,299.57728a37.3036,37.3036,0,0,0,.64828,3.92625c.25635,1.29809.58457,2.57974.96375,3.84343a38.60764,38.60764,0,0,0,2.96466,7.29913,28.40737,28.40737,0,0,0,4.51936,6.41183l1.372,1.418,1.52183,1.25872.75888.63949.82665.54647q.83061.54279,1.65511,1.11321a23.2152,23.2152,0,0,1-6.58117-4.54127,26.79213,26.79213,0,0,1-4.78718-6.46662,35.14566,35.14566,0,0,1-2.84871-7.51574A32.42078,32.42078,0,0,1,380.38594,299.57728Z"/><path fill="#dd765e" d="M382.01143,188.83113c-3.3196,2.33334-9.71985,2.23285-9.71985,2.23285l-.01929.14915c2.48792.30264,4.8446.52695,4.907,2.72657a15.79589,15.79589,0,0,1-.74841,3.62027C380.77969,195.06087,382.01143,188.83113,382.01143,188.83113Z"/><circle cx="373.693" cy="182.87" r="2.703" fill="#b02336"/><path fill="#1e1d22" d="M371.54567,177.37809c2.17455-.22021,2.51034-1.3364,6.5993,3.37668,0,0-4.31459-1.03934-12.56457,1.54373C365.5804,182.2985,368.43218,177.6934,371.54567,177.37809Z"/><path fill="#4f66d0" d="M343.53406,176.68026a2.41668,2.41668,0,0,0,2.41711-2.41711v-4.02706a2.41492,2.41492,0,1,0-4.82984,0v4.02706a2.41294,2.41294,0,0,0,2.41273,2.41711Zm0,0"/><path fill="#f73c4f" d="M347.56112,173.4532v.62883a4.15073,4.15073,0,0,1-3.62288,4.18831,4.03259,4.03259,0,0,1-4.43124-4.00719v-.80995a.8.8,0,0,0-.8-.8h-.01a.8.8,0,0,0-.8.8v.80995a5.64213,5.64213,0,0,0,4.82985,5.57262v2.47713h-1.61a.80717.80717,0,1,0,0,1.61433h4.82984a.80717.80717,0,1,0,0-1.61433h-1.61v-2.47713a5.63892,5.63892,0,0,0,4.82985-5.57262v-.80995a.8.8,0,0,0-.8-.8h-.00557A.8.8,0,0,0,347.56112,173.4532Zm0-.8"/><path fill="#ffba55" d="M487.51654,170.84923l6.726,35.42241,13.72487,5.10879,13.72645-5.10879,6.726-35.42241Z"/><path fill="#6b3832" d="M471.82511,156.43638a6.64375,6.64375,0,0,1,7.1942-1.30814,5.32019,5.32019,0,0,1,2.76138,3.19762c.054.19319.68561,2.59638-.79936,4.14206-.699.7276-2.006,1.40987-2.90666.94464a1.44721,1.44721,0,0,1-.79935-1.16266c.00394-.40786.29431-.49184.43585-1.01738.15967-.59277.041-1.417-.36331-1.59871-.43013-.19339-1.18237.34083-1.526.94464-.64027,1.12521-.07432,2.86684.89615,3.85149,1.57249,1.59536,4.15744,1.153,5.23218.96909a10.35059,10.35059,0,0,0,6.00749-3.682,9.53676,9.53676,0,0,0,2.32533-4.2633,10.8589,10.8589,0,0,0-.19378-4.65085c-.61366-2.94431-1.37556-3.38055-2.71288-7.17015-1.01383-2.87276-1.5173-4.35083-1.35664-6.39485a8.2154,8.2154,0,0,1,1.74419-4.84463,7.92669,7.92669,0,0,1,5.23219-2.71288,8.54894,8.54894,0,0,1,6.7824,2.71288l2.42231-2.7462s-2.90666-1.081,1.308-8.348l-.79916-.6178a33.44009,33.44009,0,1,1,66.88017,0l3.38766,90.77648h1.166a2.61609,2.61609,0,1,1,0,5.23218h-.97066l.40727,10.91658h.56339a2.61609,2.61609,0,1,1,0,5.23218h-.36823l8.48756,227.43915h.50425a3.29431,3.29431,0,1,1,0,6.58862H546.43232a3.29431,3.29431,0,1,1,0-6.58862h.79522l8.48756-227.43915h-.36863a2.61609,2.61609,0,1,1,0-5.23218h.56379l.40727-10.91658h-.97106a2.61609,2.61609,0,1,1,0-5.23218h1.16641l3.38765-90.77648a23.75083,23.75083,0,1,0-47.50165,0l-.79955.6178c4.215,7.26694,1.30814,8.348,1.30814,8.348l2.42232,2.7462a8.54892,8.54892,0,0,1,6.7824-2.71288,7.92667,7.92667,0,0,1,5.23218,2.71288,8.21536,8.21536,0,0,1,1.7442,4.84463c.16066,2.044-.34281,3.52209-1.35664,6.39485-1.33732,3.7896-2.09922,4.22584-2.71288,7.17015a10.8589,10.8589,0,0,0-.19378,4.65085,9.53676,9.53676,0,0,0,2.32533,4.2633,10.35059,10.35059,0,0,0,6.00749,3.682c1.07474.18392,3.65969.62627,5.23218-.96909.97046-.98465,1.53642-2.72628.89615-3.85149-.3436-.60381-1.09584-1.138-1.526-.94464-.40431.18175-.523,1.00594-.3633,1.59871.14154.52554.43191.60952.43585,1.01738a1.44722,1.44722,0,0,1-.79936,1.16266c-.90068.46523-2.20764-.217-2.90666-.94464-1.485-1.54568-.85337-3.94887-.79935-4.14206a5.32018,5.32018,0,0,1,2.76137-3.19762,6.64377,6.64377,0,0,1,7.19421,1.30814,7.10941,7.10941,0,0,1,2.18024,4.7236c.14548,4.09258-3.73618,6.8713-4.79634,7.63025-3.73637,2.67483-7.86384,2.78917-10.90041,2.83411-8.1284.12025-15.34192.16756-22.21244.14943-6.87071.01813-14.08424-.02918-22.21263-.14943-3.03657-.04494-7.164-.15928-10.90042-2.83411-1.06015-.75895-4.94181-3.53767-4.79633-7.63025A7.10936,7.10936,0,0,1,471.82511,156.43638Z"/><path fill="#6b3832" d="M487.51654,170.84923l6.726,35.42241,13.72487,5.10879,13.72645-5.10879,6.726-35.42241Zm32.76117,34.227-11.50284,4.28005v-36.8922H526.4707Zm-30.812-32.61215H507.16v36.8922l-11.50126-4.28005Z"/><circle cx="507.982" cy="212.658" r="3.416" fill="#6b3832"/><path fill="#8b9d36" d="M553.80894,468.37429l.7832-.4707c-.2207-.36621-22.041-36.73047-25.4375-45.78906l-.85547.32031C531.72593,431.57254,552.90952,466.87527,553.80894,468.37429Z"/><path fill="#8b9d36" d="M536.1221 403.04619a39.22478 39.22478 0 00-2.10917 7.0694 66.08993 66.08993 0 00-1.078 7.16753 64.77417 64.77417 0 00-.29692 7.24176 38.69368 38.69368 0 00.74452 7.34079 38.72912 38.72912 0 002.11407-7.069 64.87809 64.87809 0 001.07308-7.168 66.08858 66.08858 0 00.292-7.2422A39.18945 39.18945 0 00536.1221 403.04619zM544.17536 414.0574a37.414 37.414 0 00-2.73688 6.66543 62.83586 62.83586 0 00-1.71952 6.86081 61.87345 61.87345 0 00-.94914 7.00877 37.00359 37.00359 0 00.07846 7.206 36.96975 36.96975 0 002.74178-6.66449 61.87561 61.87561 0 001.71462-6.86181 62.93574 62.93574 0 00.94424-7.00966A37.44758 37.44758 0 00544.17536 414.0574zM548.61259 426.8764a31.74557 31.74557 0 00-2.32984 6.19549 52.73742 52.73742 0 00-1.30358 6.34193 51.85285 51.85285 0 00-.5274 6.45272 31.34443 31.34443 0 00.50823 6.60056 31.34566 31.34566 0 002.33475-6.19481 51.76636 51.76636 0 001.29867-6.3426 52.73675 52.73675 0 00.5225-6.45345A31.71459 31.71459 0 00548.61259 426.8764zM554.20048 439.67173a24.30262 24.30262 0 00-2.36239 5.27241 39.60281 39.60281 0 00-1.341 5.44874 38.86991 38.86991 0 00-.56842 5.58214 24.021 24.021 0 00.46231 5.76014 24.00232 24.00232 0 002.3673-5.27158 38.93691 38.93691 0 001.33656-5.44957 39.66925 39.66925 0 00.56352-5.583A24.30226 24.30226 0 00554.20048 439.67173zM559.13078 447.66926a21.8801 21.8801 0 00-2.4939 4.62938 37.72714 37.72714 0 00-1.56795 4.80235 43.1093 43.1093 0 00-.94691 4.92485c-.10254.83591-.19661 1.66713-.259 2.51441a18.71227 18.71227 0 01-.27552 2.5746 5.05372 5.05372 0 00.60631-.38273l.49219-.49319a9.10128 9.10128 0 00.86087-1.07676 17.24662 17.24662 0 001.32364-2.30366 25.652 25.652 0 001.7369-4.85752 28.75127 28.75127 0 00.81763-5.05781A19.04024 19.04024 0 00559.13078 447.66926zM531.33357 427.92792a31.45351 31.45351 0 00-5.5549-4.8169 51.47592 51.47592 0 00-6.13981-3.66122 50.57365 50.57365 0 00-6.58295-2.78654 31.09365 31.09365 0 00-7.17322-1.61982 31.0853 31.0853 0 005.55177 4.82242 50.57909 50.57909 0 006.14294 3.65571 51.45621 51.45621 0 006.58562 2.781A31.45062 31.45062 0 00531.33357 427.92792zM536.78994 438.11944a38.7469 38.7469 0 00-6.85134-4.4851 64.50961 64.50961 0 00-7.307-3.27247 63.3563 63.3563 0 00-7.65158-2.35481 38.305 38.305 0 00-8.11122-1.13066 38.31225 38.31225 0 006.84866 4.4909 63.36815 63.36815 0 007.30919 3.26668 64.49544 64.49544 0 007.65381 2.349A38.74553 38.74553 0 00536.78994 438.11944zM543.21284 449.44769a33.04252 33.04252 0 00-6.17592-4.33024 54.30053 54.30053 0 00-6.64715-3.12351 53.33665 53.33665 0 00-7.00336-2.21026 32.65994 32.65994 0 00-7.4786-.992 32.67059 32.67059 0 006.17369 4.336 53.34511 53.34511 0 006.64938 3.11778 54.30553 54.30553 0 007.00559 2.20451A33.04083 33.04083 0 00543.21284 449.44769zM548.28893 458.16706a24.771 24.771 0 00-5.42427-3.57285 39.5619 39.5619 0 00-5.81125-2.33659 38.85082 38.85082 0 00-6.10459-1.40109 24.50751 24.50751 0 00-6.49512-.15309 24.506 24.506 0 005.42249 3.5787 38.84752 38.84752 0 005.81347 2.33074 39.541 39.541 0 006.10592 1.39513A24.7841 24.7841 0 00548.28893 458.16706z"/><path fill="#8b9d36" d="M552.29594 465.99083a32.58027 32.58027 0 00-5.96237-4.53029 53.46986 53.46986 0 00-6.47685-3.34152 52.54041 52.54041 0 00-6.86649-2.442 32.21474 32.21474 0 00-7.38588-1.24183 32.20307 32.20307 0 005.9597 4.536 52.52154 52.52154 0 006.47953 3.33595 53.46081 53.46081 0 006.86872 2.43617A32.57931 32.57931 0 00552.29594 465.99083zM529.56055 423.5895a22.93158 22.93158 0 00-.17789-7.3224 34.50229 34.50229 0 00-1.86575-6.66142 33.93615 33.93615 0 00-3.14435-6.16076 22.7026 22.7026 0 00-4.84917-5.49349 22.68914 22.68914 0 00.16941 7.32552 33.9671 33.9671 0 001.87378 6.6583 34.50683 34.50683 0 003.15282 6.15759A22.93543 22.93543 0 00529.56055 423.5895z"/><path fill="#50661a" d="M556.16245,468.86648l.91211-.01562c-.04-2.49414-1.12305-61.31446-12.88965-79.94434l-.77148.48828C555.04331,407.80887,556.15269,468.25808,556.16245,468.86648Z"/><path fill="#50661a" d="M547.5796 397.30907a41.84155 41.84155 0 01-.27373-8.23382 74.0243 74.0243 0 01.88985-7.98723c.42621-2.63395 1.00622-5.24171 1.68832-7.82779.68121-2.60313 1.54164-5.10768 2.46091-7.77541a11.40859 11.40859 0 01.58893 2.04709 18.24372 18.24372 0 01.32188 2.08013 35.2518 35.2518 0 01.18546 4.12928 53.01736 53.01736 0 01-.74318 8.09278 58.81674 58.81674 0 01-1.87243 7.87973A37.04961 37.04961 0 01547.5796 397.30907zM533.11681 360.06139a29.58372 29.58372 0 015.15054 6.61773 46.50837 46.50837 0 013.452 7.25341 45.70173 45.70173 0 012.16668 7.73455 29.26521 29.26521 0 01.45206 8.37626 29.26406 29.26406 0 01-5.15857-6.61472 45.66 45.66 0 01-3.44394-7.25647 46.50818 46.50818 0 01-2.15866-7.73757A29.56906 29.56906 0 01533.11681 360.06139zM523.42026 375.05237a68.14932 68.14932 0 016.78268 6.2497c2.09624 2.173 4.09663 4.39465 6.05377 6.62831l5.81481 6.67318c.97545 1.09276 1.96115 2.16952 3.00258 3.18944a13.71029 13.71029 0 003.54827 2.68043 6.159 6.159 0 01-2.42837-.06158 11.36875 11.36875 0 01-2.33966-.73588 22.595 22.595 0 01-4.16706-2.38931 40.8977 40.8977 0 01-6.86426-6.35029 54.18736 54.18736 0 01-5.45459-7.45163A38.78182 38.78182 0 01523.42026 375.05237zM523.42026 390.04334a56.13444 56.13444 0 018.43176 5.18587 95.52346 95.52346 0 017.56509 6.1485 93.90993 93.90993 0 016.9093 6.877 55.503 55.503 0 016.03415 7.8488 55.48172 55.48172 0 01-8.43622-5.1813 93.8375 93.8375 0 01-7.56108-6.15307 95.51732 95.51732 0 01-6.90484-6.8816A56.12814 56.12814 0 01523.42026 390.04334zM524.40641 401.80537a55.50687 55.50687 0 018.5187 4.9264A94.40547 94.40547 0 01540.603 412.643a92.77833 92.77833 0 017.04081 6.65657 54.88367 54.88367 0 016.19108 7.65075 54.8577 54.8577 0 01-8.52316-4.92167 92.72041 92.72041 0 01-7.67342-5.916 94.39969 94.39969 0 01-7.0368-6.66126A55.48054 55.48054 0 01524.40641 401.80537zM525.06355 414.37789a51.60468 51.60468 0 018.533 4.13948 87.39193 87.39193 0 017.75813 5.17734 85.93538 85.93538 0 017.17143 5.96293 50.99421 50.99421 0 016.389 7.01078 51.04169 51.04169 0 01-8.53653-4.13452 85.93427 85.93427 0 01-7.75457-5.18236 87.45282 87.45282 0 01-7.16742-5.96789A51.60558 51.60558 0 01525.06355 414.37789zM524.40641 423.49911a57.41348 57.41348 0 018.928 4.53308A97.79688 97.79688 0 01541.479 433.597a96.07991 96.07991 0 017.55217 6.34561 56.74 56.74 0 016.76083 7.387 56.74368 56.74368 0 01-8.93152-4.52812 96.07878 96.07878 0 01-8.14109-5.56972 97.78428 97.78428 0 01-7.54815-6.35051A57.41064 57.41064 0 01524.40641 423.49911zM522.10554 432.04511a74.84536 74.84536 0 019.33232 5.17941c2.96291 1.89673 5.82952 3.90186 8.62435 5.99464 2.80286 2.08058 5.52815 4.24971 8.20529 6.49106 2.70478 2.22212 5.25976 4.53653 8.05817 6.8286a22.56414 22.56414 0 01-5.22544-1.52492 51.1016 51.1016 0 01-4.85229-2.336 79.6416 79.6416 0 01-8.91726-5.80277 91.94522 91.94522 0 01-8.101-6.83618A58.23716 58.23716 0 01522.10554 432.04511zM519.3116 440.91985a76.97434 76.97434 0 0110.1339 4.81579c3.23619 1.80283 6.377 3.73857 9.44555 5.77619q4.60352 3.0555 8.985 6.42574 2.19009 1.68989 4.33826 3.44049a38.65913 38.65913 0 004.40379 3.37206 8.5063 8.5063 0 01-2.847-.48895c-.9175-.27173-1.80824-.6023-2.68918-.94614-1.757-.69748-3.45465-1.49527-5.11978-2.34065a97.16244 97.16244 0 01-9.59891-5.66268 109.73029 109.73029 0 01-8.93465-6.62146A67.91279 67.91279 0 01519.3116 440.91985zM550.41233 407.75a45.424 45.424 0 011.30982-8.78875 76.32549 76.32549 0 012.526-8.34383 75.12853 75.12853 0 013.44707-8.00712 44.93484 44.93484 0 014.67485-7.558 44.93878 44.93878 0 01-1.30357 8.79086 75.12806 75.12806 0 01-2.53225 8.34171 76.431 76.431 0 01-3.45286 8.005A45.42333 45.42333 0 01550.41233 407.75zM552.36056 418.01237A46.41373 46.41373 0 01554.883 409.388a78.16031 78.16031 0 013.66819-8.02055 76.86126 76.86126 0 014.53576-7.56359 45.92018 45.92018 0 015.69265-6.954 45.92112 45.92112 0 01-2.51664 8.62731 76.95181 76.95181 0 01-3.674 8.01765 78.25562 78.25562 0 01-4.54111 7.56069A46.47405 46.47405 0 01552.36056 418.01237zM553.83488 427.93645a50.84022 50.84022 0 013.69227-8.65829 86.153 86.153 0 014.76535-7.93306 84.64289 84.64289 0 015.57808-7.38409 50.27131 50.27131 0 016.66142-6.65194 50.268 50.268 0 01-3.68737 8.6618 84.542 84.542 0 01-4.7707 7.92955 86.06283 86.06283 0 01-5.583 7.38069A50.84416 50.84416 0 01553.83488 427.93645zM554.9151 438.88536a65.5573 65.5573 0 015.28607-9.29269q2.94708-4.39815 6.28915-8.47284 3.33095-4.08382 7.048-7.85236a64.54109 64.54109 0 018.06039-7.02476 64.53539 64.53539 0 01-5.28116 9.29659q-2.94708 4.39789-6.29362 8.46893-3.339 4.0779-7.05285 7.84847A65.479 65.479 0 01554.9151 438.88536zM555.792 450.2389a66.20645 66.20645 0 016.25974-8.73492q3.4065-4.08926 7.17277-7.81564 3.75557-3.73675 7.8629-7.11994a65.20525 65.20525 0 018.7844-6.19186 65.208 65.208 0 01-6.25528 8.73927q-3.4065 4.08885-7.17678 7.81129-3.76293 3.73-7.86736 7.11554A66.18077 66.18077 0 01555.792 450.2389zM556.32567 457.51884a57.69871 57.69871 0 016.801-7.38431 98.3038 98.3038 0 017.582-6.351 96.56184 96.56184 0 018.17318-5.56905 57.03694 57.03694 0 018.96229-4.52589 57.0522 57.0522 0 01-6.79739 7.38921 96.63985 96.63985 0 01-7.5856 6.34611 98.375 98.375 0 01-8.1772 5.5641A57.7111 57.7111 0 01556.32567 457.51884zM556.61812 463.59969a61.07837 61.07837 0 017.94538-6.60625q4.16751-2.96264 8.58869-5.48178 4.41426-2.53155 9.07552-4.63088a60.3637 60.3637 0 019.72508-3.49578 60.37026 60.37026 0 01-7.9427 6.61154q-4.16751 2.96231-8.59136 5.47644-4.419 2.52343-9.07865 4.62559A61.08948 61.08948 0 01556.61812 463.59969zM556.3912 467.544a65.965 65.965 0 019.29576-5.35427c3.18938-1.53975 6.44118-2.91164 9.746-4.13976q4.95661-1.84384 10.08664-3.22059a65.0028 65.0028 0 0110.54182-1.99437 65.00462 65.00462 0 01-9.29352 5.36007q-4.78475 2.30912-9.74827 4.134c-3.30663 1.22333-6.66677 2.303-10.08887 3.2148A65.9542 65.9542 0 01556.3912 467.544z"/><path fill="#5e7c24" d="M557.98862,467.22976c.89942-1.499,22.083-36.80078,25.50977-45.93945l-.85547-.32031c-3.39648,9.05957-25.2168,45.42285-25.4375,45.78906Z"/><path fill="#5e7c24" d="M575.72154 402.04619a39.224 39.224 0 012.10917 7.0694 66.09 66.09 0 011.078 7.16753 64.77417 64.77417 0 01.29691 7.24176 38.69448 38.69448 0 01-.74451 7.34079 38.72833 38.72833 0 01-2.11407-7.069 64.88049 64.88049 0 01-1.07309-7.168 66.08858 66.08858 0 01-.292-7.2422A39.18945 39.18945 0 01575.72154 402.04619zM567.66828 413.0574a37.414 37.414 0 012.73688 6.66543 62.83356 62.83356 0 011.71952 6.86081 61.87574 61.87574 0 01.94915 7.00877 37.00439 37.00439 0 01-.07847 7.206 36.96975 36.96975 0 01-2.74178-6.66449 61.87561 61.87561 0 01-1.71462-6.86181 62.93809 62.93809 0 01-.94424-7.00966A37.44919 37.44919 0 01567.66828 413.0574zM563.23105 425.8764a31.74561 31.74561 0 012.32985 6.19549 52.73738 52.73738 0 011.30357 6.34193 51.85094 51.85094 0 01.5274 6.45272 31.34443 31.34443 0 01-.50823 6.60056 31.34628 31.34628 0 01-2.33475-6.19481 51.76636 51.76636 0 01-1.29867-6.3426 52.73873 52.73873 0 01-.5225-6.45345A31.71459 31.71459 0 01563.23105 425.8764zM557.64316 438.67173a24.30314 24.30314 0 012.3624 5.27241 39.6057 39.6057 0 011.341 5.44874 38.8699 38.8699 0 01.56841 5.58214 24.02047 24.02047 0 01-.46231 5.76014 24.00227 24.00227 0 01-2.36729-5.27158 38.93555 38.93555 0 01-1.33657-5.44957 39.66924 39.66924 0 01-.56351-5.583A24.30277 24.30277 0 01557.64316 438.67173zM552.71286 446.66926a21.88015 21.88015 0 012.49391 4.62938 37.72708 37.72708 0 011.56794 4.80235 43.1115 43.1115 0 01.94692 4.92485c.10254.83591.1966 1.66713.259 2.51441a18.71223 18.71223 0 00.27551 2.5746 5.05372 5.05372 0 01-.60631-.38273l-.49218-.49319a9.10138 9.10138 0 01-.86088-1.07676 17.24654 17.24654 0 01-1.32363-2.30366 25.65273 25.65273 0 01-1.73691-4.85752 28.75313 28.75313 0 01-.81763-5.05781A19.04062 19.04062 0 01552.71286 446.66926zM580.51008 426.92792a31.45346 31.45346 0 015.55489-4.8169 51.47592 51.47592 0 016.13981-3.66122 50.57378 50.57378 0 016.583-2.78654 31.09368 31.09368 0 017.17321-1.61982 31.08461 31.08461 0 01-5.55177 4.82242 50.579 50.579 0 01-6.14293 3.65571 51.45635 51.45635 0 01-6.58563 2.781A31.45066 31.45066 0 01580.51008 426.92792zM575.05371 437.11944a38.74647 38.74647 0 016.85133-4.4851 64.50975 64.50975 0 017.307-3.27247 63.35575 63.35575 0 017.65158-2.35481 38.30479 38.30479 0 018.11121-1.13066 38.31189 38.31189 0 01-6.84866 4.4909A63.36739 63.36739 0 01590.817 433.634a64.49487 64.49487 0 01-7.65381 2.349A38.74553 38.74553 0 01575.05371 437.11944zM568.6308 448.44769a33.04252 33.04252 0 016.17592-4.33024 54.3 54.3 0 016.64716-3.12351 53.3357 53.3357 0 017.00336-2.21026 32.65994 32.65994 0 017.4786-.992 32.67091 32.67091 0 01-6.17369 4.336 53.34578 53.34578 0 01-6.64938 3.11778 54.306 54.306 0 01-7.00559 2.20451A33.04092 33.04092 0 01568.6308 448.44769zM563.55471 457.16706a24.771 24.771 0 015.42428-3.57285 39.56134 39.56134 0 015.81124-2.33659 38.85108 38.85108 0 016.10459-1.40109 24.50757 24.50757 0 016.49513-.15309 24.50648 24.50648 0 01-5.42249 3.5787 38.84838 38.84838 0 01-5.81347 2.33074 39.54135 39.54135 0 01-6.10593 1.39513A24.7841 24.7841 0 01563.55471 457.16706z"/><path fill="#5e7c24" d="M559.5477 464.99083a32.58061 32.58061 0 015.96237-4.53029 53.47133 53.47133 0 016.47685-3.34152 52.54054 52.54054 0 016.8665-2.442 32.21465 32.21465 0 017.38587-1.24183 32.20241 32.20241 0 01-5.9597 4.536 52.5207 52.5207 0 01-6.47952 3.33595 53.461 53.461 0 01-6.86873 2.43617A32.57931 32.57931 0 01559.5477 464.99083zM582.2831 422.5895a22.9313 22.9313 0 01.17788-7.3224 34.503 34.503 0 011.86575-6.66142 33.9362 33.9362 0 013.14436-6.16076 22.70255 22.70255 0 014.84916-5.49349 22.68886 22.68886 0 01-.16941 7.32552 33.96708 33.96708 0 01-1.87377 6.6583 34.50754 34.50754 0 01-3.15283 6.15759A22.93538 22.93538 0 01582.2831 422.5895z"/><rect width="500" height="2" x="105.961" y="466.866" fill="#935b50"/></svg>